<?xml version="1.0" encoding="UTF-8"?>
<svg version="1.1" viewBox="0 0 293 30" xmlns="http://www.w3.org/2000/svg" xmlns:xlink="http://www.w3.org/1999/xlink">
    <!--Generated by IJSVG (https://github.com/curthard89/IJSVG)-->
    <defs>
        <path id="path-1" d="M19.9,0h-15.9c-1.8,0 -3.5,1.2 -4,3c0,0.1 0,0.2 0,0.2c0,0.1 0.1,0.1 0.2,0.1h15.9c1.8,0 3.5,-1.2 4,-3c0,-0.1 0,-0.2 0,-0.2c-0.1,-0.1 -0.1,-0.1 -0.2,-0.1Z"></path>
    </defs>
    <g fill="#FFFFFF">
        <path d="M9.7,0h-6.3c-1.9,0 -3.4,1.5 -3.4,3.4v20.8c0,1.9 1.5,3.4 3.4,3.4h6.3c8.5,0 14.7,-5.8 14.7,-13.9v-0.1c0,-7.8 -6.2,-13.6 -14.7,-13.6Zm11.1,13.9v0c0,6.3 -4.6,10.6 -11.1,10.6h-6.2v-20.2c0,-0.5 0.4,-1 1,-1h5.2c6.5,0 11.1,4.3 11.1,10.6Z" transform="translate(0, 1)"></path>
        <path d="M10.4,0h-7c-1.9,0 -3.4,1.5 -3.4,3.4v24c0,0.1 0.1,0.2 0.2,0.2h2.5c0.4,0 0.8,-0.3 0.8,-0.8v-8.8v0h5.9c6.2,0 11.4,-2.8 11.4,-9.2v0.1c0,-5.4 -4.1,-8.9 -10.4,-8.9Zm-6,3.3h5.8c4.5,0 7.1,2.1 7.1,5.7v0.1c0,3.5 -2.9,5.8 -7.3,5.8h-6.5v-10.7c2.84217e-14,-0.5 0.4,-0.9 0.9,-0.9Z" transform="translate(142.3, 1)"></path>
        <path d="M25.3,27.3l-10.3,-13.8l9.9,-13.2c0.1,-0.1 0.1,-0.2 0,-0.2c0,-0.1 -0.1,-0.1 -0.2,-0.1h-2c-1.1,0 -2.1,0.5 -2.8,1.4l-7.2,9.7l-7.2,-9.7c-0.6,-0.9 -1.7,-1.4 -2.8,-1.4h-2c-0.1,0 -0.2,0 -0.2,0.1c0,0.1 0,0.2 0,0.2l9.9,13.2l-10.3,13.8c-0.1,0.1 -0.1,0.2 0,0.2c0,0.1 0.1,0.1 0.2,0.1h1.9c1.1,0 2.1,-0.5 2.8,-1.4l7.6,-10.2l7.6,10.2c0.6,0.9 1.7,1.4 2.8,1.4h2c0.1,0 0.2,0 0.2,-0.1c0.2,-0.1 0.2,-0.2 0.1,-0.2Z" transform="translate(267.6, 1.1)"></path>
        <path d="M22.1,0h-2.5c-0.4,0 -0.8,0.3 -0.8,0.8v11.4h-15.3v-12c0,-0.1 -0.1,-0.2 -0.2,-0.2h-2.5c-0.4,0 -0.8,0.3 -0.8,0.8v26.7c0,0.1 0.1,0.2 0.2,0.2h2.5c0.4,0 0.8,-0.3 0.8,-0.8v-11.4h15.3v12c0,0.1 0.1,0.2 0.2,0.2h2.5c0.4,0 0.8,-0.3 0.8,-0.8v-26.7c0,-0.1 -0.1,-0.2 -0.2,-0.2Z" transform="translate(187.8, 1)"></path>
        <path d="M3.3,0h-2.5c-0.4,0 -0.8,0.3 -0.8,0.8v26.7c0,0.1 0.1,0.2 0.1,0.2c0,0 0.1,0 0.1,0c0,0 0,0 0.1,0h2.5c0.4,0 0.8,-0.3 0.8,-0.8v-2.3v0v0v-24.4c-0.1,-0.1 -0.2,-0.2 -0.3,-0.2Z" transform="translate(239.4, 1)"></path>
        <g fill="#FFFFFF">
            <use transform="translate(49.5, 1)" xlink:href="#path-1"></use>
            <use transform="translate(48.1, 13.2)" xlink:href="#path-1"></use>
            <path d="M19.9,0h-15.9c-1.8,0 -3.5,1.2 -4,3c0,0.1 0,0.2 0,0.2c0,0.1 0.1,0.1 0.2,0.1h15.9c1.8,0 3.5,-1.2 4,-3c0,-0.1 0,-0.2 0,-0.2c-0.1,0 -0.2,-0.1 -0.2,-0.1Z" transform="translate(46.3, 25.4)"></path>
        </g>
        <path d="M0,26v-25.2c0,-0.4 0.4,-0.8 0.9,-0.8h2.5c0.1,0 0.2,0.1 0.2,0.2v24.2h16.4c0.1,0 0.2,0.1 0.2,0.2v2.4c0,0.4 -0.3,0.7 -0.7,0.7h-17.7c-1,0 -1.8,-0.8 -1.8,-1.7Z" transform="translate(97, 1)"></path>
    </g>
</svg>
